<?xml version='1.0' encoding='utf-8'?>
<svg xmlns="http://www.w3.org/2000/svg" viewBox="0 0 3152.1 3553"><defs><style>.cls-1{fill:#0092b9;}.cls-2{fill:#fff;}.cls-3{fill:#00c9ff;}</style></defs><title>Blue Sketchbook</title><g id="Layer_2" data-name="Layer 2"><g id="Blue_Sketchbook" data-name="Blue Sketchbook"><g id="Layer_2-2" data-name="Layer 2"><g id="Sketchbook_Icon" data-name="Sketchbook Icon"><rect class="cls-1" x="128.69" y="132" width="2645.87" height="3401" rx="50" ry="50"/><path d="M2724.56,152a30,30,0,0,1,30,30h0V3483a30,30,0,0,1-30,30H178.69a30,30,0,0,1-30-30V182a30,30,0,0,1,30-30H2724.56m0-40H178.69a70,70,0,0,0-70,70V3483a70,70,0,0,0,70,70H2724.56a70,70,0,0,0,70-70V182A70,70,0,0,0,2724.56,112Z"/><rect class="cls-2" x="273.14" y="330.79" width="258.91" height="2994.83"/><path d="M512.05,350.79V3305.62H293.14V350.79H512.05m40-40H253.14V3345.62H552.05Z"/><rect class="cls-3" x="486.24" y="132" width="2645.87" height="3401" rx="50" ry="50"/><path d="M3082.1,152a30,30,0,0,1,30,30h0V3483a30,30,0,0,1-30,30H536.24a30,30,0,0,1-30-30V182a30,30,0,0,1,30-30H3082.1m0-40H536.24a70,70,0,0,0-70,70V3483a70,70,0,0,0,70,70H3082.1a70,70,0,0,0,70-70V182A70,70,0,0,0,3082.1,112Z"/><g id="Layer_3" data-name="Layer 3"><rect x="20" y="2953.45" width="715.45" height="149.06" rx="46.1" ry="46.1"/><path class="cls-2" d="M689.35,2973.45a26.13,26.13,0,0,1,26.1,26.1v56.87a26.13,26.13,0,0,1-26.1,26.1H66.1a26.13,26.13,0,0,1-26.1-26.1v-56.87a26.13,26.13,0,0,1,26.1-26.1H689.35m0-40H66.1A66.09,66.09,0,0,0,0,2999.55H0v56.87a66.09,66.09,0,0,0,66.1,66.1H689.35a66.09,66.09,0,0,0,66.1-66.1h0v-56.87a66.09,66.09,0,0,0-66.1-66.1Z"/><rect x="20" y="2602.49" width="715.45" height="149.06" rx="46.1" ry="46.1"/><path class="cls-2" d="M689.35,2622.49a26.13,26.13,0,0,1,26.1,26.1v56.86a26.13,26.13,0,0,1-26.1,26.1H66.1a26.13,26.13,0,0,1-26.1-26.1v-56.86a26.13,26.13,0,0,1,26.1-26.1H689.35m0-40H66.1A66.09,66.09,0,0,0,0,2648.57v56.88a66.09,66.09,0,0,0,66.08,66.1H689.35a66.09,66.09,0,0,0,66.1-66.08v-56.88a66.09,66.09,0,0,0-66.08-66.1Z"/><rect x="20" y="2251.52" width="715.45" height="149.06" rx="46.1" ry="46.1"/><path class="cls-2" d="M689.35,2271.52a26.13,26.13,0,0,1,26.1,26.1v56.87a26.13,26.13,0,0,1-26.1,26.1H66.1a26.13,26.13,0,0,1-26.1-26.1v-56.87a26.13,26.13,0,0,1,26.1-26.1H689.35m0-40H66.1A66.09,66.09,0,0,0,0,2297.62H0v56.87a66.09,66.09,0,0,0,66.1,66.1H689.35a66.09,66.09,0,0,0,66.1-66.1h0v-56.87a66.09,66.09,0,0,0-66.1-66.1Z"/><rect x="20" y="1900.56" width="715.45" height="149.06" rx="46.1" ry="46.1"/><path class="cls-2" d="M689.35,1920.56a26.13,26.13,0,0,1,26.1,26.1v56.86a26.13,26.13,0,0,1-26.1,26.1H66.1a26.13,26.13,0,0,1-26.1-26.1v-56.86a26.13,26.13,0,0,1,26.1-26.1H689.35m0-40H66.1A66.09,66.09,0,0,0,0,1946.64v56.88a66.09,66.09,0,0,0,66.08,66.1H689.35a66.09,66.09,0,0,0,66.1-66.08v-56.88a66.09,66.09,0,0,0-66.08-66.1Z"/><rect x="20" y="1549.59" width="715.45" height="149.06" rx="46.1" ry="46.1"/><path class="cls-2" d="M689.35,1569.59a26.13,26.13,0,0,1,26.1,26.1v56.87a26.12,26.12,0,0,1-26.1,26.09H66.1A26.12,26.12,0,0,1,40,1652.56v-56.87a26.13,26.13,0,0,1,26.1-26.1H689.35m0-40H66.1A66.09,66.09,0,0,0,0,1595.67v56.89a66.09,66.09,0,0,0,66.09,66.09H689.35a66.09,66.09,0,0,0,66.1-66.08h0v-56.87a66.09,66.09,0,0,0-66.08-66.1Z"/><rect x="20" y="1198.63" width="715.45" height="149.06" rx="46.1" ry="46.1"/><path class="cls-2" d="M689.35,1218.63a26.12,26.12,0,0,1,26.1,26.09v56.87a26.13,26.13,0,0,1-26.1,26.1H66.1a26.13,26.13,0,0,1-26.1-26.1v-56.87a26.12,26.12,0,0,1,26.1-26.09H689.35m0-40H66.1A66.09,66.09,0,0,0,0,1244.71H0v56.87a66.09,66.09,0,0,0,66.08,66.1H689.35a66.09,66.09,0,0,0,66.1-66.08v-56.89a66.09,66.09,0,0,0-66.09-66.09Z"/><rect x="20" y="847.66" width="715.45" height="149.06" rx="46.1" ry="46.1"/><path class="cls-2" d="M689.35,867.66a26.13,26.13,0,0,1,26.1,26.1v56.87a26.12,26.12,0,0,1-26.1,26.09H66.1A26.12,26.12,0,0,1,40,950.63V893.76a26.13,26.13,0,0,1,26.1-26.1H689.35m0-40H66.1A66.09,66.09,0,0,0,0,893.74v56.89a66.09,66.09,0,0,0,66.09,66.09H689.35a66.09,66.09,0,0,0,66.1-66.08h0V893.76a66.09,66.09,0,0,0-66.08-66.1Z"/><rect x="20" y="496.69" width="715.45" height="149.06" rx="46.1" ry="46.1"/><path class="cls-2" d="M689.35,516.69a26.13,26.13,0,0,1,26.1,26.1v56.87a26.13,26.13,0,0,1-26.1,26.1H66.1A26.13,26.13,0,0,1,40,599.66V542.79a26.13,26.13,0,0,1,26.1-26.1H689.35m0-40H66.1A66.09,66.09,0,0,0,0,542.79v56.87a66.09,66.09,0,0,0,66.1,66.1H689.35a66.09,66.09,0,0,0,66.1-66.1V542.79a66.09,66.09,0,0,0-66.1-66.1Z"/><path d="M1975,40c0-9.46,13-20,31.54-20h742.09c18.59,0,31.54,10.54,31.54,20V2612.5l-397.09-240.56-10.49,6.72c-1,.61-96,61.53-195.25,122.85-121.26,74.95-176.88,106.13-202.34,119Z"/><path class="cls-2" d="M2748.63,40a21.08,21.08,0,0,1,11.54,3V2577l-356.06-215.71-21.33-12.92-21,13.46c-.92.58-93.11,59.65-190.56,119.94-57.06,35.31-104.7,64.1-141.59,85.56-13.71,8-25.14,14.48-34.65,19.78V43a21.05,21.05,0,0,1,11.53-3h742.1m0-40h-742.1C1978.07,0,1955,17.91,1955,40V2648c0,.85.64,1.27,1.87,1.27,30.64,0,426.51-253.77,426.51-253.77L2800.17,2648V40c0-22.09-23.07-40-51.54-40Zm51.54,2648c0,7.36,3.16,9.82,6.32,9.82C2812.8,2657.82,2819.12,2648,2800.15,2648Z"/></g></g></g></g></g></svg>